# xmcd
#
# Track frame offsets: 
#        150
#        12235
#        23367
#        41392
#        50732
#        60425
#        75312
#        90867
#        102605
#        114445
#        125575
#        134597
#        150232
#        162280
#        173207
#        186420
#        199532
#        211630
#
# Disc length: 2979 seconds
#
# Revision: 0
# Processed by: cddbd v1.5.1PL2 Copyright (c) Steve Scherf et al.
# Submitted via: ExactAudioCopy v0.95b3
#
DISCID=d90ba112
DTITLE=Various Artist - Country All The Way
DYEAR=1997
DGENRE=Country
TTITLE0=The Most Beautiful Girl
TTITLE1=Oh Lonesome Me
TTITLE2=Rocky Mountain
TTITLE3=There's A Heartache Following Me
TTITLE4=Snowbird
TTITLE5=Rhinestone Cowboy
TTITLE6=Take These Chains From My Heart
TTITLE7=Jolene
TTITLE8=Have I Told You Lately That I Love You
TTITLE9=Last Train To San Fernando
TTITLE10=From A Jack To A King
TTITLE11=Release Me
TTITLE12=Welcome To My World
TTITLE13=Adios Amigos
TTITLE14=It's Four In The Morning
TTITLE15=Your Cheatin' Heart
TTITLE16=Heartaches By The Number
TTITLE17=Make The World Go Away
EXTD=
EXTT0=
EXTT1=
EXTT2=
EXTT3=
EXTT4=
EXTT5=
EXTT6=
EXTT7=
EXTT8=
EXTT9=
EXTT10=
EXTT11=
EXTT12=
EXTT13=
EXTT14=
EXTT15=
EXTT16=
EXTT17=
PLAYORDER=
